<?xml version="1.0" encoding="utf-8"?>
<!-- Generator: Adobe Illustrator 25.0.1, SVG Export Plug-In . SVG Version: 6.00 Build 0)  -->
<svg version="1.1" id="Capa_1" xmlns="http://www.w3.org/2000/svg" xmlns:xlink="http://www.w3.org/1999/xlink" x="0px" y="0px"
	 viewBox="0 0 512 512" style="enable-background:new 0 0 512 512;" xml:space="preserve">
<style type="text/css">
	.st0{fill:#CFCFCF;}
</style>
<g>
	<path class="st0" d="M511.8,320.2c-0.2-38.5-0.3-66.4-19.2-90.8c-21.5-27.8-54.6-32.5-81.4-33.3c4.5-19.4,5.8-40.8,3.7-64.1
		C414.2,54.7,356.8-0.8,277-3.1h-1.2L153.6-3h-1.3c-47.5,0-85,14.2-111.6,42.1C24.4,56.5,2.4,86.7,0.2,135.6L0,332.6
		c-0.2,3.7,0.1,7.5,0.1,11.3c0,56,9,96.4,37,126.2s69.4,44.9,123,44.9c1.2,0,2.3,0,3.5,0h186.5h0.4c47.8-0.4,88.2-16.2,116.9-45.7
		c28.6-29.4,44-71.3,44.5-121.2C512,348.1,511.8,328.1,511.8,320.2z M163.6,102.1l104.3-0.1c24.6,0.4,44.2,22.4,43.8,47
		c-0.3,24.3-20.2,42.1-44.4,42.1c-0.2,0-105.1,0-105.1,0c-24.6-0.4-44.2-20.6-43.8-45.2C118.8,121.2,138.9,101.9,163.6,102.1z
		 M359.6,395.1H151.1c-24.6,0-44.5-19.9-44.5-44.5c-0.1-24.6,19.9-44.6,44.5-44.6h208.7c24.6,0,44.5,19.9,44.5,44.5
		C404.2,375.2,384.2,395.1,359.6,395.1z"/>
</g>
</svg>
