<svg xmlns="http://www.w3.org/2000/svg" width="349.855" height="113.209" viewBox="0 0 349.855 113.209">
  <path id="ZEBRA" d="M51.97,113.209l0,0L1,62.243V51l50.97,50.967v11.242Zm-.471-22.8,0,0L35.6,74.51V29.462L15,8.946a39.462,39.462,0,0,1,3.433-2.514c1.073-.7,2.2-1.359,3.35-1.956L43.539,26.171h.005V0a13.1,13.1,0,0,1,1.229,26.133H54.961l.032.038,7.918,7.918H51.129L51.04,34v.089h-7.5V71.217L51.5,79.171v11.24Zm36.6-4.261A13.1,13.1,0,0,1,75,73.05h7.95V63H90.9l10.288,10.05a13.1,13.1,0,0,1-13.1,13.1Zm176.26-1.929H250.326V26.459h18.707c7.65,0,13.2,1.416,16.973,4.329,4.02,3.148,6.233,8.346,6.233,14.636a20.2,20.2,0,0,1-2.792,11A17,17,0,0,1,281.068,63L293.8,84.219l-16.8,0L264.355,61.879V84.22Zm0-46.245V54h4.5c5.748,0,9.18-2.979,9.18-7.968,0-4.742-3.419-8.053-8.313-8.053ZM226.781,84.22H203.14V26.459h19.744a49.318,49.318,0,0,1,8.952.639,15.8,15.8,0,0,1,5.77,2.132,12.7,12.7,0,0,1,4.7,5.282,17.25,17.25,0,0,1,1.71,7.62,13.659,13.659,0,0,1-3.9,10.047c-1.7,1.786-3.059,2.543-6.063,3.377,3.459.759,5.078,1.528,6.928,3.289,2.586,2.415,3.9,5.8,3.9,10.048,0,5.429-2.2,10.155-5.888,12.642a14.185,14.185,0,0,1-4.97,2.057A33.68,33.68,0,0,1,226.781,84.22Zm-9.612-23.641V74.174h5.109c5.888,0,8.4-1.994,8.4-6.666,0-2.788-1.049-4.769-3.118-5.89-1.52-.844-2.864-1.039-7.188-1.039Zm0-23.641V50.36h3.463c3.235,0,5.508-.52,6.95-1.591s2.143-2.76,2.143-5.163c0-2.368-.708-4.033-2.165-5.088s-3.79-1.58-7.1-1.58ZM349.855,83.763H334.632L331.073,72.4H312.355l-3.563,11.36H294L313.048,26h17.841l18.966,57.761ZM321.721,42.545l-5.8,18.495h11.6ZM197.081,83.761H164V26h33.081V37.344H178.029V49.122h19.052V60.466H178.029V72.417h19.052V83.76Zm-46.92,0H113l24.161-46.417H115.772L121.736,26H158.9l-24.16,46.417h21.389l-5.964,11.344ZM74.952,72.5H67V50l7.952,7.953V72.5Zm-16-.1H51l.04-38.317h.089l7.86,7.9L58.947,72.4Zm-31.7-4.931,0,0C26.333,66.523.261,40.016,0,39.75a39.668,39.668,0,0,1,1.35-9.9L19.3,47.807V36.561L4.507,21.769A39.716,39.716,0,0,1,8.986,15L27.252,33.264V67.475ZM78.335,49.948H66.942L59,42H70.385l7.948,7.946Z" transform="translate(0 0)" fill="#fff"/>
</svg>
